# xmcd
#
# Track frame offsets: 
#        150
#        13778
#        28091
#        41986
#        55839
#        69646
#        82733
#        95990
#        107029
#        120563
#        132743
#        145916
#        158798
#        170705
#        183809
#        194784
#        207866
#        220136
#        233842
#        245990
#
# Disc length: 3452 seconds
#
# Revision: 0
# Processed by: cddbd v1.5.1PL0 Copyright (c) Steve Scherf et al.
# Submitted via: ExactAudioCopy v0.95a3
#
DISCID=330d7a14
DTITLE=Bukka White - Mississippi Blues Giant
DYEAR=2003
DGENRE=Blues
TTITLE0=The New 'Frisco Train
TTITLE1=The Panama Limited
TTITLE2=I Am In The Heavenly Way
TTITLE3=Promise True And Grand
TTITLE4=Shake 'Em On Down
TTITLE5=Pinebluff Arkansas
TTITLE6=Po' Boy
TTITLE7=Sic 'Em Dogs On
TTITLE8=Black Train Blues
TTITLE9=Parchman Farm Blues
TTITLE10=Strange Place Blues
TTITLE11=Fixin' To Die BLues
TTITLE12=Aberdeen Mississippi Blues
TTITLE13=Sleepy Man Blues
TTITLE14=Good Gin Blues
TTITLE15=Special Stream Line
TTITLE16=District Attorney Blues
TTITLE17=When Can I Change My Clothes
TTITLE18=Bukka's Jitterbug Swing
TTITLE19=High Fever Blues
EXTD=
EXTT0=
EXTT1=
EXTT2=
EXTT3=
EXTT4=
EXTT5=
EXTT6=
EXTT7=
EXTT8=
EXTT9=
EXTT10=
EXTT11=
EXTT12=
EXTT13=
EXTT14=
EXTT15=
EXTT16=
EXTT17=
EXTT18=
EXTT19=
PLAYORDER=
